HIERARCHY
ROOT hip
{
  OFFSET 0 0 0
  CHANNELS 6 Xposition Yposition Zposition Zrotation Yrotation Xrotation
  JOINT abdomen
  {
    OFFSET 0 20.6881 -0.73152
    CHANNELS 3 Zrotation Xrotation Yrotation
    JOINT chest
    {
      OFFSET 0 11.7043 -0.48768
      CHANNELS 3 Zrotation Xrotation Yrotation
      JOINT neck
      {
        OFFSET 0 22.1894 -2.19456
        CHANNELS 3 Zrotation Xrotation Yrotation
        JOINT head
        {
          OFFSET -0.24384 7.07133 1.2192
          CHANNELS 3 Zrotation Xrotation Yrotation
          JOINT leftEye
          {
            OFFSET 4.14528 8.04674 8.04672
            CHANNELS 3 Zrotation Xrotation Yrotation
            End Site
            {
              OFFSET 1 0 0
            }
          }
          JOINT rightEye
          {
            OFFSET -3.6576 8.04674 8.04672
            CHANNELS 3 Zrotation Xrotation Yrotation
            End Site
            {
              OFFSET 1 0 0
            }
          }
        }
      }
      JOINT rCollar
      {
        OFFSET -2.68224 19.2634 -4.8768
        CHANNELS 3 Zrotation Xrotation Yrotation
        JOINT rShldr
        {
          OFFSET -8.77824 -1.95073 1.46304
          CHANNELS 3 Zrotation Xrotation Yrotation
          JOINT rForeArm
          {
            OFFSET -28.1742 -1.7115 0.48768
            CHANNELS 3 Zrotation Xrotation Yrotation
            JOINT rHand
            {
              OFFSET -22.5879 0.773209 7.07136
              CHANNELS 3 Zrotation Xrotation Yrotation
              JOINT rThumb1
              {
                OFFSET -1.2192 -0.487915 3.41376
                CHANNELS 3 Zrotation Xrotation Yrotation
                JOINT rThumb2
                {
                  OFFSET -3.37035 -0.52449 3.41376
                  CHANNELS 3 Zrotation Xrotation Yrotation
                  End Site
                  {
                    OFFSET -1.78271 -1.18214 1.43049
                  }
                }
              }
              JOINT rIndex1
              {
                OFFSET -7.75947 0.938293 5.60832
                CHANNELS 3 Zrotation Xrotation Yrotation
                JOINT rIndex2
                {
                  OFFSET -2.54057 -0.884171 1.56538
                  CHANNELS 3 Zrotation Xrotation Yrotation
                  End Site
                  {
                    OFFSET -1.62519 -0.234802 1.16502
                  }
                }
              }
              JOINT rMid1
              {
                OFFSET -8.24714 1.18213 3.41376
                CHANNELS 3 Zrotation Xrotation Yrotation
                JOINT rMid2
                {
                  OFFSET -3.10165 -0.590103 1.0647
                  CHANNELS 3 Zrotation Xrotation Yrotation
                  End Site
                  {
                    OFFSET -2.48547 -0.328903 0.83742
                  }
                }
              }
              JOINT rRing1
              {
                OFFSET -8.82822 0.546677 1.51678
                CHANNELS 3 Zrotation Xrotation Yrotation
                JOINT rRing2
                {
                  OFFSET -2.60934 -0.819778 -0.0198488
                  CHANNELS 3 Zrotation Xrotation Yrotation
                  End Site
                  {
                    OFFSET -2.33842 -0.294052 0.168128
                  }
                }
              }
              JOINT rPinky1
              {
                OFFSET -8.27202 -0.0477905 -0.4584
                CHANNELS 3 Zrotation Xrotation Yrotation
                JOINT rPinky2
                {
                  OFFSET -1.82734 -0.647385 -0.700984
                  CHANNELS 3 Zrotation Xrotation Yrotation
                  End Site
                  {
                    OFFSET -1.69225 -0.51767 -0.607171
                  }
                }
              }
            }
          }
        }
      }
      JOINT lCollar
      {
        OFFSET 2.68224 19.2634 -4.8768
        CHANNELS 3 Zrotation Xrotation Yrotation
        JOINT lShldr
        {
          OFFSET 8.77824 -1.95073 1.46304
          CHANNELS 3 Zrotation Xrotation Yrotation
          JOINT lForeArm
          {
            OFFSET 28.1742 -1.7115 0.48768
            CHANNELS 3 Zrotation Xrotation Yrotation
            JOINT lHand
            {
              OFFSET 22.5879 0.773209 7.07136
              CHANNELS 3 Zrotation Xrotation Yrotation
              JOINT lThumb1
              {
                OFFSET 1.2192 -0.487915 3.41376
                CHANNELS 3 Zrotation Xrotation Yrotation
                JOINT lThumb2
                {
                  OFFSET 3.37035 -0.52449 3.41376
                  CHANNELS 3 Zrotation Xrotation Yrotation
                  End Site
                  {
                    OFFSET 1.78271 -1.18214 1.43049
                  }
                }
              }
              JOINT lIndex1
              {
                OFFSET 7.75947 0.938293 5.60832
                CHANNELS 3 Zrotation Xrotation Yrotation
                JOINT lIndex2
                {
                  OFFSET 2.54057 -0.884171 1.56538
                  CHANNELS 3 Zrotation Xrotation Yrotation
                  End Site
                  {
                    OFFSET 1.62519 -0.234802 1.16502
                  }
                }
              }
              JOINT lMid1
              {
                OFFSET 8.24714 1.18213 3.41376
                CHANNELS 3 Zrotation Xrotation Yrotation
                JOINT lMid2
                {
                  OFFSET 3.10165 -0.590103 1.0647
                  CHANNELS 3 Zrotation Xrotation Yrotation
                  End Site
                  {
                    OFFSET 2.48547 -0.328903 0.83742
                  }
                }
              }
              JOINT lRing1
              {
                OFFSET 8.82822 0.546677 1.51678
                CHANNELS 3 Zrotation Xrotation Yrotation
                JOINT lRing2
                {
                  OFFSET 2.60934 -0.819778 -0.0198488
                  CHANNELS 3 Zrotation Xrotation Yrotation
                  End Site
                  {
                    OFFSET 2.33842 -0.294052 0.168128
                  }
                }
              }
              JOINT lPinky1
              {
                OFFSET 8.27202 -0.0477905 -0.4584
                CHANNELS 3 Zrotation Xrotation Yrotation
                JOINT lPinky2
                {
                  OFFSET 1.82734 -0.647385 -0.700984
                  CHANNELS 3 Zrotation Xrotation Yrotation
                  End Site
                  {
                    OFFSET 1.69225 -0.51767 -0.607171
                  }
                }
              }
            }
          }
        }
      }
    }
  }
  JOINT rButtock
  {
    OFFSET -8.77824 4.35084 1.2192
    CHANNELS 3 Zrotation Xrotation Yrotation
    JOINT rThigh
    {
      OFFSET 0 -1.70687 -2.19456
      CHANNELS 3 Zrotation Xrotation Yrotation
      JOINT rShin
      {
        OFFSET 0 -36.8199 0.73152
        CHANNELS 3 Zrotation Xrotation Yrotation
        JOINT rFoot
        {
          OFFSET 0.73152 -45.1104 -5.12064
          CHANNELS 3 Zrotation Xrotation Yrotation
          End Site
          {
            OFFSET -1.1221 -3.69964 12.103
          }
        }
      }
    }
  }
  JOINT lButtock
  {
    OFFSET 8.77824 4.35084 1.2192
    CHANNELS 3 Zrotation Xrotation Yrotation
    JOINT lThigh
    {
      OFFSET 0 -1.70687 -2.19456
      CHANNELS 3 Zrotation Xrotation Yrotation
      JOINT lShin
      {
        OFFSET 0 -36.8199 0.73152
        CHANNELS 3 Zrotation Xrotation Yrotation
        JOINT lFoot
        {
          OFFSET -0.73152 -45.1104 -5.12064
          CHANNELS 3 Zrotation Xrotation Yrotation
          End Site
          {
            OFFSET 1.1221 -3.69964 12.103
          }
        }
      }
    }
  }
}
MOTION
Frames:	4
Frame Time:	0.00833333
0.019604526 44.98494 0.5190407 176.68721 -71.18065 -170.40692 -9.792893 17.67385 15.150362 -5.226464 -12.614175 2.9895456 0.99059206 13.714674 16.21793 -2.0862625 -17.121424 30.592484 -0.059473783 0.029902803 0.07175951 0.115310505 -0.04700845 -0.035173904 -0.03940381 0.00828358 0.049988773 71.625534 49.826115 -19.074562 -27.768911 -42.42375 87.966835 0.14983197 4.710198 0.47260866 0.025717707 -0.053646997 0.042631194 0.042074446 -0.08079334 -0.09408078 0.03279763 -0.012783546 -0.036377266 7.6635866 5.484301 0.41696805 -0.04596887 0.06770391 -0.09907256 2.8374183 0.9919795 0.09586042 -0.06536111 -0.03856997 -0.035950933 10.233726 0.73271793 0.108170226 0.06821505 0.038110077 0.07162695 2.2938135 -0.75381744 -0.23747665 0.06982493 0.010991909 -0.08308989 -42.049347 45.46017 -28.231491 28.297316 -46.27608 -96.98914 1.0872288 -28.112047 4.369409 -0.036709525 0.002833686 0.07240792 0.007592842 0.055203836 -0.021384617 0.0635491 0.02612627 -0.06644633 -7.801811 5.5184746 -0.47145495 -0.033490285 0.039396085 -0.06741136 -2.783686 0.9193424 -0.15573138 0.027219603 -0.06514066 0.061938103 -10.247174 0.8606243 -0.0781285 -0.010845132 0.13716368 -0.04848983 -2.1753914 -0.6886937 0.2733458 0.05886046 0.037577037 0.058005862 -76.59717 -50.3178 -59.36589 -172.45116 85.14233 156.88887 2.7253654 -24.272106 5.547124 0.09089244 0.01835607 0.038870588 56.220364 -52.068592 43.817722 171.69035 76.24646 -175.36372 1.4794669 -27.14612 7.7951245
0.46377966 42.846317 0.86218226 175.79753 -70.9534 -170.0292 -9.881013 17.97584 15.168551 -5.630307 -12.871186 2.9405322 0.5267065 14.9738245 15.93976 -2.3585012 -17.140226 30.383823 -0.049563073 -0.04313108 0.040637895 0.04344961 -0.02605858 -0.042731818 0.041175585 -0.0705388 0.01351517 72.44552 51.180977 -16.85655 -28.079601 -42.427704 88.06047 -0.1374523 4.067198 -0.049277514 0.04308801 -0.043861605 -0.031701017 -0.017417269 -0.029528324 -0.08628187 -0.028633403 -0.018071877 -0.07221714 7.614697 5.4546247 0.42034888 -0.0039104098 -0.072614044 -0.102802366 2.8503346 0.96863544 0.06255386 -0.02166672 -0.07770376 0.04786003 10.258453 0.6929177 0.11633983 0.07443533 0.058442693 0.038774837 2.2856936 -0.75552994 -0.22964615 -0.03038659 -0.0014156458 -0.11659784 -40.70401 45.492764 -27.538498 26.620827 -46.564434 -96.10433 1.1168288 -28.670963 4.5966115 -0.047848646 -0.08021224 -0.018455647 -0.028704591 0.04749115 0.003891945 0.054984037 -0.045344498 -0.06024192 -7.732803 5.456786 -0.44861662 0.0037591716 -0.010048954 -0.021362567 -2.84351 0.9267428 -0.13418269 -0.053891126 0.005663236 -0.015183958 -10.285562 0.783855 -0.061982904 0.020760564 0.05479403 -0.10008229 -2.1777406 -0.66413814 0.21592249 0.10009538 0.040826384 0.007375077 -77.26937 -50.393642 -60.82193 -164.0913 86.90863 169.65907 3.733458 -23.906244 4.594109 0.072031505 -0.006913508 0.10718167 56.926044 -53.625103 44.0555 161.58777 83.047005 -162.23187 1.6914198 -27.23199 7.6446767
0.9828711 43.613003 1.3674496 175.73312 -71.33023 -169.89752 -10.4267435 18.606102 14.973052 -5.5915155 -13.136192 3.0493743 0.3513828 15.038226 15.526413 -2.4483259 -17.575558 29.877415 -0.06642486 -0.051204495 -0.011880066 -0.02925907 0.045954056 -0.055592936 0.07592271 -0.10209457 -0.04245894 71.86732 52.00238 -16.629185 -28.716457 -42.119392 87.745995 0.14521527 3.9184444 0.49767652 0.08259823 -0.02700763 -0.015508273 -0.051968705 -0.06539989 -0.047570188 -0.07178165 -0.008317929 -0.049138032 7.6132703 5.504383 0.43401638 0.036557924 -0.12120961 -0.10084289 2.8846245 0.9883735 0.060278073 -0.0010173261 -0.10503567 0.079226576 10.307526 0.683059 0.11984662 0.017526936 0.09296804 -0.027528713 2.2979245 -0.7522427 -0.21657386 -0.09575305 -0.008333265 -0.09721641 -41.240765 44.884243 -27.194641 26.280035 -46.507717 -96.04043 1.4470514 -27.381966 4.3750067 -0.03705626 -0.07814641 -0.10686225 -0.04167742 0.05385616 0.0013488975 0.024084158 -0.057084214 -0.020641461 -7.7201104 5.392277 -0.44913727 0.03565678 0.043842696 0.03886471 -2.889566 0.93249595 -0.12831631 -0.092126735 0.015521308 -0.034027047 -10.324166 0.74496967 -0.03626374 0.045066487 0.00063989806 -0.12314045 -2.1510334 -0.7036782 0.20614445 0.13479395 0.023518289 -0.0060267467 -77.09334 -49.845673 -61.794235 -161.16637 86.08573 178.51941 4.286208 -23.60727 4.36145 0.0052421684 -0.021412123 0.08517602 57.392376 -53.176792 43.24804 159.0991 88.65069 -164.36086 2.0652444 -26.84427 8.51936
1.4106995 43.127087 1.912418 176.59 -71.96949 -170.68153 -10.3345375 18.660242 14.729704 -5.5794797 -13.077581 3.06398 0.26797956 14.700251 15.694948 -2.5140612 -17.47707 29.955143 -0.054678295 -0.027052965 -0.017358886 -0.0462374 0.10085634 -0.060175344 0.07797993 -0.1229033 -0.037904456 70.125465 51.94746 -15.809745 -28.403042 -41.7181 87.17697 0.38258353 4.864514 0.94122964 0.10198184 -0.019294096 -0.020374637 -0.064430095 -0.06837854 -0.05617577 -0.06910025 0.011242721 -0.024446815 7.6552973 5.521196 0.4475234 0.0613288 -0.096504904 -0.10705857 2.8752942 1.0079356 0.097140886 0.002159911 -0.1125526 0.0855584 10.309513 0.698397 0.10347903 -0.041882303 0.12699452 -0.03668924 2.2992547 -0.7669258 -0.24605905 -0.10684065 -0.0027694774 -0.07137994 -42.48873 44.72602 -27.440022 26.65532 -46.461308 -96.7281 1.3400087 -27.202717 4.234271 -0.04366272 -0.05816546 -0.13620724 -0.06802368 0.054250844 0.011989709 0.002771464 -0.04651986 -0.017137984 -7.740606 5.392551 -0.44992596 0.02420917 0.09799853 0.024491534 -2.8925865 0.9344164 -0.10122438 -0.073948294 0.0055296584 -0.031081961 -10.336559 0.7613314 -0.026890019 0.07178884 -0.029160503 -0.12230551 -2.1492937 -0.7203119 0.22727227 0.15437825 0.03051782 0.0022012473 -77.23064 -49.491264 -62.567707 -163.35988 85.39269 179.45354 3.9573047 -23.60019 3.7914047 -0.02783516 -0.047755867 0.054878984 56.50867 -53.759983 42.26669 162.24232 88.17497 -161.88858 2.107104 -26.894459 8.942222
